<?xml version="1.0" encoding="UTF-8" standalone="no"?>
<!-- Created with Inkscape (http://www.inkscape.org/) -->

<svg
   width="150"
   height="150"
   id="svg2162"
   sodipodi:version="0.32"
   inkscape:version="1.2.2 (b0a8486541, 2022-12-01)"
   sodipodi:modified="true"
   version="1.0"
   sodipodi:docname="fog_signal.svg"
   xmlns:inkscape="http://www.inkscape.org/namespaces/inkscape"
   xmlns:sodipodi="http://sodipodi.sourceforge.net/DTD/sodipodi-0.dtd"
   xmlns="http://www.w3.org/2000/svg"
   xmlns:svg="http://www.w3.org/2000/svg"
   xmlns:rdf="http://www.w3.org/1999/02/22-rdf-syntax-ns#"
   xmlns:cc="http://creativecommons.org/ns#"
   xmlns:dc="http://purl.org/dc/elements/1.1/">
  <title
     id="title2987">R1: Fog Singal</title>
  <defs
     id="defs2164" />
  <sodipodi:namedview
     id="base"
     pagecolor="#ffffff"
     bordercolor="#666666"
     borderopacity="1.0"
     inkscape:pageopacity="0.0"
     inkscape:pageshadow="2"
     inkscape:zoom="5.2066667"
     inkscape:cx="61.93982"
     inkscape:cy="75.192061"
     inkscape:document-units="px"
     inkscape:current-layer="layer1"
     inkscape:window-width="1433"
     inkscape:window-height="984"
     inkscape:window-x="26"
     inkscape:window-y="23"
     showgrid="false"
     inkscape:window-maximized="0"
     inkscape:showpageshadow="0"
     inkscape:pagecheckerboard="0"
     inkscape:deskcolor="#d1d1d1"
     showguides="true">
    <sodipodi:guide
       position="75,101.79257"
       orientation="-1,0"
       id="guide1795"
       inkscape:locked="false"
       inkscape:label=""
       inkscape:color="rgb(0,134,229)" />
    <sodipodi:guide
       position="7.4903969,75"
       orientation="0,1"
       id="guide1797"
       inkscape:locked="false"
       inkscape:label=""
       inkscape:color="rgb(0,134,229)" />
  </sodipodi:namedview>
  <metadata
     id="metadata2167">
    <rdf:RDF>
      <cc:Work
         rdf:about="">
        <dc:format>image/svg+xml</dc:format>
        <dc:type
           rdf:resource="http://purl.org/dc/dcmitype/StillImage" />
        <cc:license
           rdf:resource="http://creativecommons.org/publicdomain/zero/1.0/" />
        <dc:title>R1: Fog Singal</dc:title>
      </cc:Work>
      <cc:License
         rdf:about="http://creativecommons.org/publicdomain/zero/1.0/">
        <cc:permits
           rdf:resource="http://creativecommons.org/ns#Reproduction" />
        <cc:permits
           rdf:resource="http://creativecommons.org/ns#Distribution" />
        <cc:permits
           rdf:resource="http://creativecommons.org/ns#DerivativeWorks" />
      </cc:License>
    </rdf:RDF>
  </metadata>
  <g
     inkscape:label="Camada 1"
     inkscape:groupmode="layer"
     id="layer1"
     transform="translate(-48.353133,-300.5621)">
    <g
       id="g7"
       transform="matrix(0.5,0,0,0.5,43.04847,296.001)"
       class="icon">
      <path
         id="path28209"
         d="m 159.602,156.051 c 2.197,-0.22 4.159,1.385 4.378,3.582 0.22,2.197 -1.385,4.159 -3.582,4.378 -2.197,0.219 -4.159,-1.386 -4.378,-3.583 -0.22,-2.196 1.385,-4.157 3.582,-4.377 z"
         style="fill-opacity:1" />
      <path
         style="stroke-linecap:round;-inkscape-stroke:none"
         d="m 85.912109,158.83398 a 6,6 0 0 0 -6,6 c 0,0 -0.353315,35.87094 24.705081,60.21875 a 6,6 0 0 0 8.48437,-0.12109 6,6 0 0 0 -0.12304,-8.48633 C 92.262947,196.31717 91.912109,164.83398 91.912109,164.83398 a 6,6 0 0 0 -6,-6 z"
         id="path10" />
      <path
         style="stroke-linecap:round;-inkscape-stroke:none"
         d="m 61.361328,159.08984 a 6,6 0 0 0 -6,6 c 0,0 -0.208443,46.64373 35.259766,77.95899 a 6,6 0 0 0 8.470703,-0.52539 6,6 0 0 0 -0.527344,-8.47071 C 67.570729,206.68805 67.361328,165.08984 67.361328,165.08984 a 6,6 0 0 0 -6,-6 z"
         id="path12" />
      <path
         style="stroke-linecap:round;-inkscape-stroke:none"
         d="m 37.251953,159.10742 a 6,6 0 0 0 -6.445312,5.51953 c 0,0 -4.09948,54.52741 41.40625,95.02344 a 6,6 0 0 0 8.470703,-0.49414 6,6 0 0 0 -0.492188,-8.4707 C 38.913222,213.95165 42.771484,165.55273 42.771484,165.55273 a 6,6 0 0 0 -5.519531,-6.44531 z"
         id="path14" />
    </g>
  </g>
</svg>
