<?xml version="1.0" encoding="UTF-8" standalone="no"?>
<svg
   version="1.0"
   width="150"
   height="150"
   id="svg2"
   inkscape:version="1.2.2 (b0a8486541, 2022-12-01)"
   sodipodi:docname="carin.svg"
   sodipodi:version="0.32"
   inkscape:output_extension="org.inkscape.output.svg.inkscape"
   sodipodi:modified="true"
   xmlns:inkscape="http://www.inkscape.org/namespaces/inkscape"
   xmlns:sodipodi="http://sodipodi.sourceforge.net/DTD/sodipodi-0.dtd"
   xmlns="http://www.w3.org/2000/svg"
   xmlns:svg="http://www.w3.org/2000/svg"
   xmlns:rdf="http://www.w3.org/1999/02/22-rdf-syntax-ns#"
   xmlns:cc="http://creativecommons.org/ns#"
   xmlns:dc="http://purl.org/dc/elements/1.1/">
  <title
     id="title2985">Q100: Cairn, blue</title>
  <metadata
     id="metadata3032">
    <rdf:RDF>
      <cc:Work
         rdf:about="">
        <dc:format>image/svg+xml</dc:format>
        <dc:type
           rdf:resource="http://purl.org/dc/dcmitype/StillImage" />
        <cc:license
           rdf:resource="http://creativecommons.org/publicdomain/zero/1.0/" />
        <dc:title>Q100: Cairn, blue</dc:title>
      </cc:Work>
      <cc:Work
         rdf:about="">
        <dc:format>image/svg+xml</dc:format>
        <dc:type
           rdf:resource="http://purl.org/dc/dcmitype/StillImage" />
      </cc:Work>
      <cc:License
         rdf:about="http://creativecommons.org/publicdomain/zero/1.0/">
        <cc:permits
           rdf:resource="http://creativecommons.org/ns#Reproduction" />
        <cc:permits
           rdf:resource="http://creativecommons.org/ns#Distribution" />
        <cc:permits
           rdf:resource="http://creativecommons.org/ns#DerivativeWorks" />
      </cc:License>
    </rdf:RDF>
  </metadata>
  <sodipodi:namedview
     pagecolor="#ffffff"
     bordercolor="#666666"
     borderopacity="1"
     objecttolerance="10"
     gridtolerance="10"
     guidetolerance="10"
     inkscape:pageopacity="0"
     inkscape:pageshadow="2"
     inkscape:window-width="1920"
     inkscape:window-height="1011"
     id="namedview3030"
     showgrid="false"
     inkscape:zoom="4.277196"
     inkscape:cx="49.097586"
     inkscape:cy="75.750561"
     inkscape:window-x="0"
     inkscape:window-y="0"
     inkscape:window-maximized="1"
     inkscape:current-layer="svg2"
     inkscape:showpageshadow="2"
     inkscape:pagecheckerboard="true"
     inkscape:deskcolor="#d1d1d1"
     showborder="true"
     showguides="true">
    <sodipodi:guide
       position="74.815369,103.0066"
       orientation="1,0"
       id="guide113"
       inkscape:locked="false" />
    <sodipodi:guide
       position="8.182931,74.950833"
       orientation="0,-1"
       id="guide115"
       inkscape:locked="false" />
  </sodipodi:namedview>
  <defs
     id="defs4" />
  <path
     fill="none"
     style="fill-opacity:1;stroke:none;stroke-width:1px;stroke-linecap:butt;stroke-linejoin:miter;stroke-opacity:1"
     d="m 37.091489,75.348757 -2.59737,-7.91017 1.65287,-7.2018 3.77799,-4.25024 7.08374,-3.54187 6.96567,0.70838 4.48637,1.77093 -1.06256,-6.84761 1.06256,-7.55598 4.60442,-5.54893 6.37536,-3.89605 6.49343,-0.35419 7.55598,2.12512 6.49342,5.3128 2.47931,6.02118 0.23612,6.49342 -1.53481,7.43792 5.3128,-0.9445 7.437921,0.82644 4.95862,2.59737 4.01411,5.90311 0.47225,7.55598 -27.980751,0.59031 -1.29868,-4.01411 -3.18768,-4.25024 -8.97273,-2.24319 -5.78505,3.89606 -2.12512,6.72954 z"
     id="beacon_color_1"
     inkscape:connector-curvature="0" />
  <path
     style="fill:#000407;fill-opacity:1;fill-rule:evenodd;stroke:none"
     d="m 75.091519,28.913327 c -11.16039,0 -20.21875,8.30377 -20.21875,18.5625 0,1.5293 0.24558,3.01559 0.625,4.4375 -1.82128,-0.54284 -3.77414,-0.84375 -5.8125,-0.84375 -9.72116,0 -17.59375,6.68953 -17.59375,14.96875 0,2.13216 0.52595,4.16351 1.46875,6 h -0.625 v 5.65625 h 5.65625 23.375 0.65625 c 1.28732,5.53295 6.23327,9.65624 12.15625,9.65625 5.9547,0.13302 10.43875,-3.75998 11.93718,-9.89428 l 30.062821,0.23803 v -0.0625 -5.59375 h -0.65625 c 0.0323,-0.46464 0.0625,-0.94576 0.0625,-1.4375 0,-8.27922 -7.90384,-14.96875 -17.625001,-14.96875 -1.72146,0 -3.36468,0.20132 -4.9375,0.59375 1.07812,-2.40721 1.6875,-5.31795 1.6875,-8.75 0,-10.25873 -9.05836,-18.5625 -20.21875,-18.5625 z m -0.84375,3.96875 c 7.13417,0 15.15618,4.65338 15.53125,14.59375 0.42542,11.27481 -4.13873,14.07974 -15.09375,14.59375 -3.75171,0.17603 -6.62994,-0.52002 -8.8125,-1.875 -1.58249,-1.44518 -3.79508,-2.5596 -4.40625,-5.28125 -0.88416,-2.0636 -1.33581,-4.44407 -1.46875,-7 -0.44778,-8.60866 6.69039,-15.03125 14.25,-15.03125 z m -25.28125,21.375 c 3.06969,0 6.29645,0.91893 8.84375,2.8125 1.75598,1.40475 2.38848,2.08752 3.3125,3.8125 0.77765,1.46658 1.2632,3.17819 1.34375,5.15625 0.10091,2.47782 -0.15093,4.43378 -0.71875,6 h -23.9375 c -0.7622,-1.65942 -1.16606,-3.60433 -1.28125,-5.65625 -0.39003,-6.94754 5.85277,-12.125 12.4375,-12.125 z m 48.875,4.5625 c 6.214171,0 13.173301,3.75896 13.500001,11.78125 0.0205,0.50311 0.0375,0.97527 0.0312,1.4375 H 86.935219 c -0.28764,-1.23885 -0.75074,-2.40197 -1.375,-3.46875 0.9625,-5.71142 6.47809,-9.75 12.28125,-9.75 z m -23.0625,8.53125 c 2.56334,0 4.83461,1.28619 6.1875,3.25 0.005,0.007 -0.005,0.0245 0,0.0312 1.76664,1.67998 2.08174,3.75256 1.21875,5.4375 -0.58328,3.56043 -3.68167,6.2813 -7.40625,6.2813 -4.14,0 -7.5,-3.36 -7.5,-7.5 0,-4.14 3.36,-7.5 7.5,-7.5 z"
     id="path90440"
     inkscape:connector-curvature="0"
     sodipodi:nodetypes="sscssccccccccccccsscsssssccsssccsccsscscccscscsssss" />
</svg>
