<?xml version="1.0" encoding="UTF-8" standalone="no"?>
<svg
   version="1.0"
   width="150"
   height="150"
   id="svg2"
   inkscape:version="1.2.2 (b0a8486541, 2022-12-01)"
   sodipodi:docname="generic.svg"
   sodipodi:version="0.32"
   inkscape:output_extension="org.inkscape.output.svg.inkscape"
   sodipodi:modified="true"
   xmlns:inkscape="http://www.inkscape.org/namespaces/inkscape"
   xmlns:sodipodi="http://sodipodi.sourceforge.net/DTD/sodipodi-0.dtd"
   xmlns="http://www.w3.org/2000/svg"
   xmlns:svg="http://www.w3.org/2000/svg"
   xmlns:rdf="http://www.w3.org/1999/02/22-rdf-syntax-ns#"
   xmlns:cc="http://creativecommons.org/ns#"
   xmlns:dc="http://purl.org/dc/elements/1.1/">
  <title
     id="title2984">Q20: Conical buoy</title>
  <metadata
     id="metadata3011">
    <rdf:RDF>
      <cc:Work
         rdf:about="">
        <dc:format>image/svg+xml</dc:format>
        <dc:type
           rdf:resource="http://purl.org/dc/dcmitype/StillImage" />
        <cc:license
           rdf:resource="http://creativecommons.org/publicdomain/zero/1.0/" />
        <dc:title>Q20: Conical buoy</dc:title>
      </cc:Work>
      <cc:Work
         rdf:about="">
        <dc:format>image/svg+xml</dc:format>
        <dc:type
           rdf:resource="http://purl.org/dc/dcmitype/StillImage" />
      </cc:Work>
      <cc:License
         rdf:about="http://creativecommons.org/publicdomain/zero/1.0/">
        <cc:permits
           rdf:resource="http://creativecommons.org/ns#Reproduction" />
        <cc:permits
           rdf:resource="http://creativecommons.org/ns#Distribution" />
        <cc:permits
           rdf:resource="http://creativecommons.org/ns#DerivativeWorks" />
      </cc:License>
    </rdf:RDF>
  </metadata>
  <sodipodi:namedview
     pagecolor="#ffffff"
     bordercolor="#666666"
     borderopacity="1"
     objecttolerance="10"
     gridtolerance="10"
     guidetolerance="10"
     inkscape:pageopacity="0"
     inkscape:pageshadow="2"
     inkscape:window-width="1920"
     inkscape:window-height="1011"
     id="namedview3009"
     showgrid="false"
     inkscape:zoom="5.3788076"
     inkscape:cx="49.639254"
     inkscape:cy="79.757453"
     inkscape:window-x="0"
     inkscape:window-y="0"
     inkscape:window-maximized="1"
     inkscape:current-layer="svg2"
     inkscape:showpageshadow="2"
     inkscape:pagecheckerboard="0"
     inkscape:deskcolor="#d1d1d1"
     showguides="true">
    <sodipodi:guide
       position="-27.053247,75.01141"
       orientation="0,-1"
       id="guide213"
       inkscape:locked="false" />
    <sodipodi:guide
       position="75.04339,57.475304"
       orientation="1,0"
       id="guide215"
       inkscape:locked="false" />
  </sodipodi:namedview>
  <defs
     id="defs4" />
  <path
     d="m 91.595321,18.924162 c -3.94627,0.06541 -7.53201,2.22066 -11.28125,5.1875 -3.99919,3.16463 -8.22839,7.495371 -12.65625,12.59375 -8.77416,10.10285 -18.27948,23.16687 -27.15625,35.3125 h -7.15625 v 5.65625 h 29.6875 c 1.28732,5.53295 6.23327,9.65624 12.15625,9.65625 5.92495,0 10.87095,-4.12052 12.15625,-9.65625 h 29.843749 v -0.0625 -5.59375 h -7.71875 c -1.27604,-11.32703 -2.18516,-23.37284 -4,-33.09375 -0.95465,-5.113399 -2.12258,-9.574959 -4,-13.15625 -1.877419,-3.58129 -4.968129,-6.61342 -9.093749,-6.84375 -0.26657,-0.01474 -0.51817,-0.0044 -0.78125,0 z m 0.375,6.96875 c 1.08458,0.06055 1.99502,0.67144 3.28125,3.125001 1.28623,2.45356 2.45169,6.409309 3.34375,11.187499 1.657349,8.87736 2.559919,20.53184 3.812499,31.8125 H 87.345321 c -1.2853,-5.53573 -6.2313,-9.65625 -12.15625,-9.65625 -5.92298,10e-6 -10.86893,4.1233 -12.15625,9.65625 h -13.84375 c 7.97792,-10.90142 16.24031,-22.07186 23.75,-30.71875 4.26874,-4.91516 8.30177,-9.014839 11.71875,-11.718749 3.41698,-2.703911 6.21148,-3.748391 7.3125,-3.687501 z m -16.78125,41.4375 c 4.14,0 7.5,3.36 7.5,7.5 0,4.14 -3.36,7.5 -7.5,7.5 -4.14,0 -7.5,-3.36 -7.5,-7.5 0,-4.14 3.36,-7.5 7.5,-7.5 z"
     id="path90440"
     style="fill:#000407;fill-opacity:1;fill-rule:evenodd;stroke:none" />
</svg>
