<?xml version="1.0" encoding="UTF-8" standalone="no"?>
<svg
   version="1.0"
   width="150"
   height="150"
   id="svg2"
   inkscape:version="1.2.2 (b0a8486541, 2022-12-01)"
   sodipodi:docname="installation_morring.svg"
   sodipodi:version="0.32"
   inkscape:output_extension="org.inkscape.output.svg.inkscape"
   sodipodi:modified="true"
   xmlns:inkscape="http://www.inkscape.org/namespaces/inkscape"
   xmlns:sodipodi="http://sodipodi.sourceforge.net/DTD/sodipodi-0.dtd"
   xmlns="http://www.w3.org/2000/svg"
   xmlns:svg="http://www.w3.org/2000/svg"
   xmlns:rdf="http://www.w3.org/1999/02/22-rdf-syntax-ns#"
   xmlns:cc="http://creativecommons.org/ns#"
   xmlns:dc="http://purl.org/dc/elements/1.1/">
  <title
     id="title2983">Q26: Green superbuoy</title>
  <metadata
     id="metadata3032">
    <rdf:RDF>
      <cc:Work
         rdf:about="">
        <dc:format>image/svg+xml</dc:format>
        <dc:type
           rdf:resource="http://purl.org/dc/dcmitype/StillImage" />
        <cc:license
           rdf:resource="http://creativecommons.org/publicdomain/zero/1.0/" />
        <dc:title>Q26: Green superbuoy</dc:title>
      </cc:Work>
      <cc:Work
         rdf:about="">
        <dc:format>image/svg+xml</dc:format>
        <dc:type
           rdf:resource="http://purl.org/dc/dcmitype/StillImage" />
      </cc:Work>
      <cc:License
         rdf:about="http://creativecommons.org/publicdomain/zero/1.0/">
        <cc:permits
           rdf:resource="http://creativecommons.org/ns#Reproduction" />
        <cc:permits
           rdf:resource="http://creativecommons.org/ns#Distribution" />
        <cc:permits
           rdf:resource="http://creativecommons.org/ns#DerivativeWorks" />
      </cc:License>
    </rdf:RDF>
  </metadata>
  <sodipodi:namedview
     pagecolor="#ffffff"
     bordercolor="#666666"
     borderopacity="1"
     objecttolerance="10"
     gridtolerance="10"
     guidetolerance="10"
     inkscape:pageopacity="0"
     inkscape:pageshadow="2"
     inkscape:window-width="1807"
     inkscape:window-height="1338"
     id="namedview3030"
     showgrid="false"
     inkscape:zoom="6.6530524"
     inkscape:cx="69.216349"
     inkscape:cy="47.722456"
     inkscape:window-x="26"
     inkscape:window-y="23"
     inkscape:window-maximized="0"
     inkscape:current-layer="svg2"
     inkscape:showpageshadow="2"
     inkscape:pagecheckerboard="0"
     inkscape:deskcolor="#d1d1d1"
     showguides="true">
    <sodipodi:guide
       position="74.85286,107.91405"
       orientation="1,0"
       id="guide236"
       inkscape:locked="false" />
    <sodipodi:guide
       position="-4.2027232,74.941055"
       orientation="0,-1"
       id="guide238"
       inkscape:locked="false" />
  </sodipodi:namedview>
  <defs
     id="defs4" />
  <path
     fill="none"
     style="display:inline;fill-opacity:1;stroke:none;stroke-width:1px;stroke-linecap:butt;stroke-linejoin:miter;stroke-opacity:1"
     d="m 27.737156,73.234118 11.656456,-26.80864 76.785378,0.238302 10.47672,26.540517 -41.632257,0.374356 -3.97163,-6.6194 -3.97164,-1.32387 h -5.95745 l -5.29551,4.63357 -1.98582,4.63357 z"
     id="buoy_color_1"
     inkscape:connector-curvature="0"
     sodipodi:nodetypes="ccccccccccc" />
  <path
     fill="none"
     style="display:inline;fill-opacity:1;stroke:none;stroke-width:1px;stroke-linecap:butt;stroke-linejoin:miter;stroke-opacity:1"
     d="m 27.595152,74.172749 5.838434,-15.168776 87.976844,0.178285 6.15307,13.980739 -40.904788,-0.486973 -3.97163,-6.6194 -3.97164,-1.32387 h -5.95745 l -5.29551,4.63357 -1.98582,4.63357 z"
     id="buoy_color_2"
     inkscape:connector-curvature="0"
     sodipodi:nodetypes="ccccccccccc" />
  <path
     fill="none"
     style="display:inline;fill-opacity:1;stroke:none;stroke-width:1.28171px;stroke-linecap:butt;stroke-linejoin:miter;stroke-opacity:1"
     d="m 32.09923,63.763091 2.743847,-8.810924 84.773963,-0.69082 1.94707,9.313819 z"
     id="buoy_color_3"
     inkscape:connector-curvature="0"
     sodipodi:nodetypes="ccccc" />
  <path
     style="fill-opacity:1;fill-rule:evenodd;stroke:none"
     d="m 116.88115,44.040959 -79.837161,-0.01805 -12.1941,27.89305 c -0.858229,1.963133 -2.972008,5.289877 -2.972008,5.289877 l 40.815758,0.366373 c 14.525152,0.130382 12.839207,0.129194 24.3125,0 l 42.957241,-0.483718 c 0,0 -1.93977,-5.093398 -1.97131,-5.172532 z m -77.279501,4.8816 74.589361,-0.35519 9.74252,23.68574 -36.927391,-0.33715 c -14.524768,-0.132612 -12.836787,0 -24.3125,0 h -32.5625 z"
     id="path90440"
     inkscape:connector-curvature="0"
     sodipodi:nodetypes="ccscsscsccccsscc"
     class="icon" />
  <path
     d="m 74.826172,18.96875 c -6.972581,0 -12.681641,5.70906 -12.681641,12.681641 0,6.97258 5.70906,12.68164 12.681641,12.68164 6.97258,0 12.679687,-5.70906 12.679687,-12.68164 0,-6.972581 -5.707107,-12.681641 -12.679687,-12.681641 z m 0,5.232422 c 4.144698,0 7.447265,3.304521 7.447265,7.449219 0,4.144697 -3.302567,7.449218 -7.447265,7.449218 -4.144698,0 -7.449219,-3.304521 -7.449219,-7.449218 0,-4.144698 3.304521,-7.449219 7.449219,-7.449219 z"
     id="path1337"
     class="icon"
     style="fill-opacity:1;fill-rule:evenodd;stroke:none" />
</svg>
