<?xml version="1.0" encoding="UTF-8" standalone="no"?>
<svg
   version="1.0"
   width="150"
   height="150"
   id="svg2"
   inkscape:version="1.2.2 (b0a8486541, 2022-12-01)"
   sodipodi:docname="super_buoy.svg"
   sodipodi:version="0.32"
   inkscape:output_extension="org.inkscape.output.svg.inkscape"
   sodipodi:modified="true"
   xmlns:inkscape="http://www.inkscape.org/namespaces/inkscape"
   xmlns:sodipodi="http://sodipodi.sourceforge.net/DTD/sodipodi-0.dtd"
   xmlns="http://www.w3.org/2000/svg"
   xmlns:svg="http://www.w3.org/2000/svg"
   xmlns:rdf="http://www.w3.org/1999/02/22-rdf-syntax-ns#"
   xmlns:cc="http://creativecommons.org/ns#"
   xmlns:dc="http://purl.org/dc/elements/1.1/">
  <title
     id="title2983">Q26: Green superbuoy</title>
  <metadata
     id="metadata3032">
    <rdf:RDF>
      <cc:Work
         rdf:about="">
        <dc:format>image/svg+xml</dc:format>
        <dc:type
           rdf:resource="http://purl.org/dc/dcmitype/StillImage" />
        <cc:license
           rdf:resource="http://creativecommons.org/publicdomain/zero/1.0/" />
        <dc:title>Q26: Green superbuoy</dc:title>
      </cc:Work>
      <cc:Work
         rdf:about="">
        <dc:format>image/svg+xml</dc:format>
        <dc:type
           rdf:resource="http://purl.org/dc/dcmitype/StillImage" />
      </cc:Work>
      <cc:License
         rdf:about="http://creativecommons.org/publicdomain/zero/1.0/">
        <cc:permits
           rdf:resource="http://creativecommons.org/ns#Reproduction" />
        <cc:permits
           rdf:resource="http://creativecommons.org/ns#Distribution" />
        <cc:permits
           rdf:resource="http://creativecommons.org/ns#DerivativeWorks" />
      </cc:License>
    </rdf:RDF>
  </metadata>
  <sodipodi:namedview
     pagecolor="#ffffff"
     bordercolor="#666666"
     borderopacity="1"
     objecttolerance="10"
     gridtolerance="10"
     guidetolerance="10"
     inkscape:pageopacity="0"
     inkscape:pageshadow="2"
     inkscape:window-width="1920"
     inkscape:window-height="1011"
     id="namedview3030"
     showgrid="false"
     inkscape:zoom="6.6530524"
     inkscape:cx="76.506236"
     inkscape:cy="63.279225"
     inkscape:window-x="0"
     inkscape:window-y="0"
     inkscape:window-maximized="1"
     inkscape:current-layer="svg2"
     inkscape:showpageshadow="2"
     inkscape:pagecheckerboard="0"
     inkscape:deskcolor="#d1d1d1"
     showguides="true">
    <sodipodi:guide
       position="74.85286,107.91405"
       orientation="1,0"
       id="guide236"
       inkscape:locked="false" />
    <sodipodi:guide
       position="-4.2027232,74.941055"
       orientation="0,-1"
       id="guide238"
       inkscape:locked="false" />
  </sodipodi:namedview>
  <defs
     id="defs4" />
  <path
     fill="none"
     style="display:inline;fill-opacity:1;stroke:none;stroke-width:1px;stroke-linecap:butt;stroke-linejoin:miter;stroke-opacity:1"
     d="m 27.737156,73.234118 11.656456,-26.80864 76.785378,0.238302 10.47672,26.540517 -41.632257,0.374356 -3.97163,-6.6194 -3.97164,-1.32387 h -5.95745 l -5.29551,4.63357 -1.98582,4.63357 z"
     id="buoy_color_1"
     inkscape:connector-curvature="0"
     sodipodi:nodetypes="ccccccccccc" />
  <path
     fill="none"
     style="display:inline;fill-opacity:1;stroke:none;stroke-width:1px;stroke-linecap:butt;stroke-linejoin:miter;stroke-opacity:1"
     d="m 27.595152,74.172749 5.838434,-15.168776 87.976844,0.178285 6.15307,13.980739 -40.904788,-0.486973 -3.97163,-6.6194 -3.97164,-1.32387 h -5.95745 l -5.29551,4.63357 -1.98582,4.63357 z"
     id="buoy_color_2"
     inkscape:connector-curvature="0"
     sodipodi:nodetypes="ccccccccccc" />
  <path
     fill="none"
     style="display:inline;fill-opacity:1;stroke:none;stroke-width:1.28171px;stroke-linecap:butt;stroke-linejoin:miter;stroke-opacity:1"
     d="m 32.09923,63.763091 2.743847,-8.810924 84.773963,-0.69082 1.94707,9.313819 z"
     id="buoy_color_3"
     inkscape:connector-curvature="0"
     sodipodi:nodetypes="ccccc" />
  <path
     style="fill:#000407;fill-opacity:1;fill-rule:evenodd;stroke:none"
     d="m 116.88115,44.040959 -79.837161,-0.01805 -12.1941,27.89305 H 3.0061388 v 5.65625 H 62.693639 c 1.28732,5.53295 6.23327,9.65624 12.15625,9.65625 5.92495,0 10.87095,-4.12052 12.15625,-9.65625 H 146.8499 v -5.65625 h -18.85783 z m -77.279501,4.8816 74.589361,-0.35519 9.74252,23.68574 -36.927391,-0.33715 c -1.2853,-5.53573 -6.2313,-9.65625 -12.15625,-9.65625 -5.92298,10e-6 -10.86893,4.1233 -12.15625,9.65625 h -32.5625 z m 35.24824,18.3059 c 4.14,0 7.5,3.36 7.5,7.5 0,4.14 -3.36,7.5 -7.5,7.5 -4.14,0 -7.5,-3.36 -7.5,-7.5 0,-4.14 3.36,-7.5 7.5,-7.5 z"
     id="path90440"
     inkscape:connector-curvature="0"
     sodipodi:nodetypes="ccccccscccccccccscccsssss" />
</svg>
