<?xml version="1.0" encoding="UTF-8" standalone="no"?>
<svg
   version="1.0"
   width="150"
   height="150"
   id="svg2"
   inkscape:version="1.2.2 (b0a8486541, 2022-12-01)"
   sodipodi:docname="tower.svg"
   sodipodi:version="0.32"
   inkscape:output_extension="org.inkscape.output.svg.inkscape"
   sodipodi:modified="true"
   xmlns:inkscape="http://www.inkscape.org/namespaces/inkscape"
   xmlns:sodipodi="http://sodipodi.sourceforge.net/DTD/sodipodi-0.dtd"
   xmlns="http://www.w3.org/2000/svg"
   xmlns:svg="http://www.w3.org/2000/svg"
   xmlns:rdf="http://www.w3.org/1999/02/22-rdf-syntax-ns#"
   xmlns:cc="http://creativecommons.org/ns#"
   xmlns:dc="http://purl.org/dc/elements/1.1/">
  <metadata
     id="metadata3562">
    <rdf:RDF>
      <cc:Work
         rdf:about="">
        <dc:format>image/svg+xml</dc:format>
        <dc:type
           rdf:resource="http://purl.org/dc/dcmitype/StillImage" />
        <cc:license
           rdf:resource="http://creativecommons.org/publicdomain/zero/1.0/" />
      </cc:Work>
      <cc:Work
         rdf:about="">
        <dc:format>image/svg+xml</dc:format>
        <dc:type
           rdf:resource="http://purl.org/dc/dcmitype/StillImage" />
      </cc:Work>
      <cc:License
         rdf:about="http://creativecommons.org/publicdomain/zero/1.0/">
        <cc:permits
           rdf:resource="http://creativecommons.org/ns#Reproduction" />
        <cc:permits
           rdf:resource="http://creativecommons.org/ns#Distribution" />
        <cc:permits
           rdf:resource="http://creativecommons.org/ns#DerivativeWorks" />
      </cc:License>
    </rdf:RDF>
  </metadata>
  <sodipodi:namedview
     pagecolor="#ffffff"
     bordercolor="#666666"
     borderopacity="1"
     objecttolerance="10"
     gridtolerance="10"
     guidetolerance="10"
     inkscape:pageopacity="0"
     inkscape:pageshadow="2"
     inkscape:window-width="1504"
     inkscape:window-height="1282"
     id="namedview3560"
     showgrid="false"
     inkscape:zoom="9.0247131"
     inkscape:cx="61.442397"
     inkscape:cy="49.918485"
     inkscape:window-x="26"
     inkscape:window-y="23"
     inkscape:window-maximized="0"
     inkscape:current-layer="svg2"
     inkscape:showpageshadow="2"
     inkscape:pagecheckerboard="true"
     inkscape:deskcolor="#d1d1d1"
     showguides="true">
    <sodipodi:guide
       position="74.904773,112.54761"
       orientation="1,0"
       id="guide235"
       inkscape:locked="false" />
    <sodipodi:guide
       position="64.092159,74.938522"
       orientation="0,-1"
       id="guide237"
       inkscape:locked="false" />
  </sodipodi:namedview>
  <defs
     id="defs4" />
  <path
     fill="none"
     style="fill-opacity:1;stroke:none;stroke-width:0.8969px;stroke-linecap:butt;stroke-linejoin:miter;stroke-opacity:1"
     d="m 52.759008,74.547064 4.082554,-62.583082 35.57655,-0.590407 4.665777,62.58308 -12.628924,0.01597 -1.700458,-4.538251 -3.400926,-2.660351 -3.71009,-1.251928 -3.400916,0.469469 -3.246325,1.408423 -2.009632,2.190882 -1.236703,4.538251 z"
     id="beacon_color_1"
     inkscape:connector-curvature="0" />
  <path
     fill="none"
     style="fill-opacity:1;stroke:none;stroke-width:0.8969px;stroke-linecap:butt;stroke-linejoin:miter;stroke-opacity:1"
     d="m 53.583381,76.039882 2.251298,-33.649554 38.707584,-0.116458 3.365999,33.175603 -12.628924,0.01597 -1.700458,-4.538251 -3.400926,-2.660351 -3.71009,-1.251928 -3.400916,0.469469 -3.246325,1.408422 -2.009631,2.190884 -1.236703,4.538251 z"
     id="beacon_color_2"
     inkscape:connector-curvature="0"
     sodipodi:nodetypes="ccccccccccccc" />
  <path
     fill="none"
     style="fill-opacity:1;stroke:none;stroke-width:0.380983px;stroke-linecap:butt;stroke-linejoin:miter;stroke-opacity:1"
     d="M 53.879133,48.087945 56.94402,36.681966 92.52057,36.575435 95.864745,47.943853 Z"
     id="beacon_color_3"
     inkscape:connector-curvature="0"
     sodipodi:nodetypes="ccccc" />
  <path
     d="M 53.823165,8.3435343 49.700319,72.30165 h -7.270697 v 5.104241 h 21.394233 c 1.147551,4.992974 5.556501,8.713861 10.836402,8.71387 5.281657,0 9.690651,-3.718387 10.836402,-8.71387 H 106.8909 V 72.30165 H 99.620192 L 95.19092,8.3435343 Z m 5.989271,6.4014517 h 29.695641 l 4.094991,57.556664 h -8.106409 c -1.145751,-4.995483 -5.554745,-8.71387 -10.836402,-8.71387 -5.279901,8e-6 -9.688851,3.720895 -10.836402,8.71387 h -8.106408 z m 14.847821,53.326629 c 3.690505,0 6.685698,3.032089 6.685698,6.768055 0,3.735967 -2.995193,6.768054 -6.685698,6.768054 -3.690505,0 -6.685698,-3.032087 -6.685698,-6.768054 0,-3.735966 2.995193,-6.768055 6.685698,-6.768055 z"
     id="path2558"
     style="fill-opacity:1;fill-rule:evenodd;stroke:none;stroke-width:0.8969"
     class="icon" />
</svg>
