<?xml version="1.0" encoding="UTF-8" standalone="no"?>
<!-- Created with Inkscape (http://www.inkscape.org/) -->

<svg
   version="1.0"
   width="150"
   height="150"
   id="svg3425"
   inkscape:version="1.2.2 (b0a8486541, 2022-12-01)"
   sodipodi:docname="obstruction_covers_uncovers.svg"
   xmlns:inkscape="http://www.inkscape.org/namespaces/inkscape"
   xmlns:sodipodi="http://sodipodi.sourceforge.net/DTD/sodipodi-0.dtd"
   xmlns="http://www.w3.org/2000/svg"
   xmlns:svg="http://www.w3.org/2000/svg"
   xmlns:rdf="http://www.w3.org/1999/02/22-rdf-syntax-ns#"
   xmlns:cc="http://creativecommons.org/ns#"
   xmlns:dc="http://purl.org/dc/elements/1.1/">
  <title
     id="title2983">K43.1: Stumps of Posts or Pillars</title>
  <metadata
     id="metadata8">
    <rdf:RDF>
      <cc:Work
         rdf:about="">
        <dc:format>image/svg+xml</dc:format>
        <dc:type
           rdf:resource="http://purl.org/dc/dcmitype/StillImage" />
        <dc:title>K43.1: Stumps of Posts or Pillars</dc:title>
        <cc:license
           rdf:resource="http://creativecommons.org/publicdomain/zero/1.0/" />
      </cc:Work>
      <cc:License
         rdf:about="http://creativecommons.org/publicdomain/zero/1.0/">
        <cc:permits
           rdf:resource="http://creativecommons.org/ns#Reproduction" />
        <cc:permits
           rdf:resource="http://creativecommons.org/ns#Distribution" />
        <cc:permits
           rdf:resource="http://creativecommons.org/ns#DerivativeWorks" />
      </cc:License>
    </rdf:RDF>
  </metadata>
  <sodipodi:namedview
     pagecolor="#ffffff"
     bordercolor="#666666"
     borderopacity="1"
     objecttolerance="10"
     gridtolerance="10"
     guidetolerance="10"
     inkscape:pageopacity="0"
     inkscape:pageshadow="2"
     inkscape:window-width="1452"
     inkscape:window-height="749"
     id="namedview6"
     showgrid="false"
     fit-margin-top="0"
     fit-margin-left="0"
     fit-margin-right="0"
     fit-margin-bottom="0"
     inkscape:zoom="5.3866667"
     inkscape:cx="66.18193"
     inkscape:cy="75.185643"
     inkscape:window-x="443"
     inkscape:window-y="128"
     inkscape:window-maximized="0"
     inkscape:current-layer="svg3425"
     inkscape:showpageshadow="0"
     inkscape:pagecheckerboard="0"
     inkscape:deskcolor="#d1d1d1"
     showguides="true">
    <sodipodi:guide
       position="75,41.398515"
       orientation="-1,0"
       id="guide378"
       inkscape:locked="false"
       inkscape:label=""
       inkscape:color="rgb(0,134,229)" />
    <sodipodi:guide
       position="-14.051345,75"
       orientation="0,1"
       id="guide380"
       inkscape:locked="false"
       inkscape:label=""
       inkscape:color="rgb(0,134,229)" />
  </sodipodi:namedview>
  <defs
     id="defs3427" />
  <path
     d="m 143.17755,75.188123 c 0,37.446977 -30.35678,67.803757 -67.803755,67.803757 -37.446968,0 -67.8037481,-30.35678 -67.8037481,-67.803757 0,-37.446969 30.3567801,-67.8037481 67.8037481,-67.8037481 37.446975,0 67.803755,30.3567791 67.803755,67.8037481 z"
     id="path3546"
     style="fill:#74b98f;stroke-width:1.65375"
     inkscape:connector-curvature="0" />
  <path
     d="m 71.807903,3.870153 c -0.809213,0.8193989 -1.405433,2.4214935 -1.395351,3.5658983 0.01008,1.1444055 0.637818,2.7151687 1.447031,3.5142187 0.809213,0.799051 2.377004,1.402539 3.514219,1.395351 1.137214,-0.0071 2.712132,-0.630684 3.514218,-1.447031 0.802087,-0.816344 1.405433,-2.4214931 1.395352,-3.5658976 C 80.273229,6.1882871 79.638403,4.6145179 78.83634,3.8184732 78.034278,3.0224295 76.511016,2.4217478 75.373802,2.423122 74.236587,2.4245002 72.617116,3.0507549 71.807903,3.870153 Z M 45.864699,9.0381213 c -0.809199,0.81335 -1.457166,2.4156287 -1.447031,3.5658987 0.01008,1.150272 0.689547,2.721109 1.498711,3.514219 0.809166,0.793111 2.325325,1.396727 3.462539,1.395351 1.137215,-0.0015 2.756686,-0.627632 3.565899,-1.447031 0.809213,-0.819398 1.405433,-2.421493 1.395351,-3.565898 C 54.329983,11.356256 53.70235,9.7854935 52.893137,8.9864424 52.083924,8.1873924 50.516133,7.5839028 49.378918,7.5910901 48.241704,7.5982301 46.6739,8.2247735 45.864699,9.0381213 Z m 51.886407,0 c -0.80617,0.8122622 -1.409684,2.3740767 -1.395352,3.5142187 0.01438,1.140145 0.692541,2.713884 1.498711,3.514219 0.806176,0.800336 2.326565,1.451159 3.462535,1.447031 1.13599,-0.0042 2.71096,-0.685348 3.51423,-1.49871 0.80325,-0.813363 1.45417,-2.371102 1.44702,-3.514219 -0.007,-1.143116 -0.68954,-2.7211084 -1.49872,-3.5142186 -0.80915,-0.7931101 -2.32531,-1.3967257 -3.46253,-1.3953523 -1.13721,0.00147 -2.759718,0.6347712 -3.565894,1.4470312 z M 119.76666,23.715152 c -0.80921,0.813348 -1.45717,2.415627 -1.44703,3.565898 0.009,1.150271 0.68955,2.721108 1.49871,3.514219 0.80916,0.79311 2.32955,1.406703 3.46254,1.395351 1.13296,-0.01141 2.71096,-0.685348 3.51421,-1.49871 0.80324,-0.813363 1.45418,-2.371103 1.44704,-3.514219 -0.006,-1.143117 -0.68955,-2.721109 -1.49872,-3.514218 -0.80916,-0.793112 -2.33251,-1.399608 -3.46253,-1.395353 -1.13004,0.0043 -2.70503,0.633683 -3.51422,1.447032 z m -95.865827,0.05167 c -0.806204,0.806203 -1.454181,2.371102 -1.447031,3.514219 0.0071,1.143116 0.692539,2.713882 1.49871,3.514219 0.806172,0.800335 2.326568,1.451156 3.46254,1.447031 1.135973,-0.0041 2.710967,-0.68535 3.514218,-1.498711 0.803251,-0.813363 1.454181,-2.371103 1.447032,-3.514219 -0.0071,-1.143117 -0.689546,-2.721109 -1.498712,-3.514219 -0.809164,-0.793111 -2.332506,-1.399607 -3.462538,-1.395351 -1.130032,0.0043 -2.708016,0.640827 -3.514219,1.447031 z M 134.49536,45.730694 c -0.80324,0.813361 -1.45417,2.371101 -1.44702,3.514218 0.006,1.143117 0.68954,2.721108 1.4987,3.514219 0.80917,0.793109 2.33253,1.399606 3.46255,1.395351 1.13002,-0.0043 2.70801,-0.640828 3.51421,-1.447031 0.8062,-0.806203 1.45418,-2.371102 1.44704,-3.514219 -0.006,-1.143117 -0.69254,-2.713883 -1.49871,-3.514218 -0.80617,-0.800337 -2.32657,-1.451158 -3.46254,-1.447032 -1.13598,0.0041 -2.71098,0.685348 -3.51423,1.498712 z M 9.1721238,45.782364 c -0.8031996,0.819349 -1.4025385,2.377005 -1.3953513,3.514219 0.00714,1.137214 0.6378183,2.715168 1.4470313,3.514219 0.8092132,0.79905 2.3770032,1.402538 3.5142192,1.395351 1.137214,-0.0071 2.705018,-0.633682 3.514218,-1.447031 0.8092,-0.813349 1.460175,-2.422782 1.447032,-3.565898 -0.01306,-1.143117 -0.695461,-2.669378 -1.498712,-3.46254 -0.803252,-0.793161 -2.319422,-1.448187 -3.462538,-1.447031 -1.143118,10e-4 -2.7626996,0.679362 -3.5658992,1.498711 z M 139.66334,71.673902 c -0.80324,0.813361 -1.33489,2.947379 -1.44704,3.514218 -0.11212,0.56684 -0.11642,-0.510092 0,0.05167 0.11642,0.561772 1.38236,2.900767 1.49872,3.462539 0.11642,0.561772 -0.31768,-0.418839 0,0.05167 0.31767,0.470518 2.33251,1.399606 3.46253,1.395351 1.13003,-0.0043 3.19269,-0.966925 3.51422,-1.447031 0.32153,-0.480107 -0.11212,0.51516 0,-0.05167 0.11212,-0.56684 1.45417,-2.371103 1.44703,-3.514219 -0.006,-1.143117 -0.69254,-2.713883 -1.49871,-3.514219 -0.80617,-0.800335 -2.32655,-1.451158 -3.46254,-1.447031 -1.13597,0.0041 -2.71097,0.685349 -3.51421,1.498711 z M 4.0558347,71.725576 c -0.8032512,0.813362 -1.4541805,2.371102 -1.4470313,3.514219 0.00711,1.143116 0.689546,2.721108 1.4987111,3.514219 0.8091644,0.79311 2.3325063,1.399606 3.4625393,1.395351 1.130031,-0.0043 2.7080152,-0.640828 3.5142192,-1.447031 0.806202,-0.806203 1.454179,-2.371103 1.447031,-3.514219 -0.0071,-1.143117 -0.69254,-2.713884 -1.498711,-3.514219 C 10.22642,70.873561 8.7060257,70.222739 7.5700538,70.226865 6.4340805,70.23096 4.8590854,70.912214 4.0558347,71.725576 Z M 9.2238038,97.668781 C 8.4205517,98.482139 7.769622,100.03988 7.7767725,101.183 c 0.00714,1.14311 0.6895455,2.7211 1.4987102,3.51421 0.8091643,0.79311 2.3325063,1.39961 3.4625403,1.39535 1.130031,-0.004 2.708015,-0.64082 3.514218,-1.44703 0.806203,-0.80621 1.45418,-2.3711 1.447032,-3.51421 -0.0071,-1.143122 -0.692541,-2.713886 -1.498712,-3.514218 -0.806172,-0.800338 -2.326567,-1.451155 -3.462538,-1.447031 -1.135973,0.0044 -2.710969,0.685346 -3.5142192,1.49871 z M 134.49536,97.617131 c -0.80919,0.813348 -1.45716,2.415629 -1.44702,3.565899 0.009,1.15027 0.68954,2.72111 1.4987,3.51422 0.80917,0.7931 2.33253,1.3996 3.46255,1.39535 1.13002,-0.003 2.70502,-0.63368 3.51421,-1.44702 0.8092,-0.81337 1.45718,-2.41565 1.44704,-3.56591 -0.009,-1.150271 -0.68956,-2.721113 -1.49871,-3.514219 -0.80917,-0.79311 -2.33252,-1.399606 -3.46254,-1.395351 -1.13002,0.0044 -2.70502,0.633678 -3.51423,1.447031 z M 23.900833,119.6327 c -0.8092,0.81334 -1.457167,2.41561 -1.447031,3.56588 0.01018,1.15028 0.689546,2.72112 1.49871,3.51423 0.809166,0.7931 2.325325,1.39672 3.46254,1.39535 1.137214,-0.001 2.756684,-0.62763 3.565897,-1.44702 0.809213,-0.8194 1.405434,-2.42151 1.395353,-3.56591 -0.01018,-1.14441 -0.637819,-2.71517 -1.447032,-3.51422 -0.809213,-0.79906 -2.377004,-1.40255 -3.514218,-1.39535 -1.137215,0.006 -2.70502,0.63367 -3.514219,1.44704 z m 95.917507,0 c -0.80621,0.8062 -1.45419,2.37109 -1.44704,3.51421 0.006,1.1431 0.69255,2.71388 1.49872,3.51423 0.80617,0.80032 2.32656,1.45116 3.46253,1.44702 1.13596,-0.003 2.71099,-0.68534 3.51422,-1.49872 0.80324,-0.81335 1.45417,-2.37111 1.44703,-3.51421 -0.006,-1.14311 -0.68954,-2.72112 -1.49871,-3.51422 -0.80916,-0.79312 -2.33251,-1.39961 -3.46254,-1.39535 -1.13004,0.005 -2.70801,0.64083 -3.51421,1.44704 z m -73.901961,14.72867 c -0.80325,0.81336 -1.454179,2.3711 -1.447031,3.51423 0.007,1.14311 0.689547,2.72111 1.498711,3.51421 0.809166,0.79311 2.332508,1.39961 3.462539,1.39535 1.130033,-0.005 2.708016,-0.64083 3.514219,-1.44703 0.806203,-0.8062 1.45418,-2.37109 1.447031,-3.51422 -0.0071,-1.14312 -0.692539,-2.71388 -1.498711,-3.51422 -0.806171,-0.80033 -2.326566,-1.45116 -3.462539,-1.44703 -1.135972,0.003 -2.710967,0.68535 -3.514219,1.49871 z m 51.886407,0 c -0.803255,0.81336 -1.454176,2.3711 -1.447032,3.51423 0.0074,1.14311 0.689548,2.72111 1.498711,3.51421 0.809169,0.79311 2.332505,1.39961 3.462535,1.39535 1.13003,-0.005 2.70502,-0.63368 3.51423,-1.44703 0.8092,-0.81335 1.46017,-2.42278 1.44702,-3.56589 -0.0131,-1.14313 -0.69547,-2.66939 -1.49872,-3.46255 -0.80324,-0.79315 -2.32654,-1.45116 -3.46253,-1.44703 -1.13597,0.003 -2.710966,0.68535 -3.514214,1.49871 z m -25.943203,5.11629 c -0.8092,0.81335 -1.457167,2.41564 -1.447031,3.5659 0.01008,1.15027 0.689546,2.72112 1.49871,3.51422 0.809166,0.79311 2.332508,1.3996 3.46254,1.39535 1.130032,-0.005 2.705018,-0.63369 3.514218,-1.44704 0.8092,-0.81334 1.457167,-2.41563 1.447032,-3.56588 -0.01019,-1.15028 -0.689546,-2.72112 -1.498712,-3.51422 -0.809164,-0.79311 -2.332506,-1.3996 -3.462538,-1.39536 -1.130032,0.005 -2.70502,0.63369 -3.514219,1.44703 z"
     id="path2381"
     style="fill:#000000;fill-opacity:1;fill-rule:evenodd;stroke:none;stroke-width:1.65375"
     inkscape:connector-curvature="0" />
</svg>
