<?xml version="1.0" encoding="UTF-8" standalone="no"?>
<!-- Created with Inkscape (http://www.inkscape.org/) -->

<svg
   version="1.0"
   width="150"
   height="150"
   id="svg3425"
   inkscape:version="1.2.2 (b0a8486541, 2022-12-01)"
   sodipodi:docname="wreck_dangerous.svg"
   xmlns:inkscape="http://www.inkscape.org/namespaces/inkscape"
   xmlns:sodipodi="http://sodipodi.sourceforge.net/DTD/sodipodi-0.dtd"
   xmlns="http://www.w3.org/2000/svg"
   xmlns:svg="http://www.w3.org/2000/svg"
   xmlns:rdf="http://www.w3.org/1999/02/22-rdf-syntax-ns#"
   xmlns:cc="http://creativecommons.org/ns#"
   xmlns:dc="http://purl.org/dc/elements/1.1/">
  <title
     id="title2984">K28: Wreck considered to be potentially dangerous</title>
  <metadata
     id="metadata9">
    <rdf:RDF>
      <cc:Work
         rdf:about="">
        <dc:format>image/svg+xml</dc:format>
        <dc:type
           rdf:resource="http://purl.org/dc/dcmitype/StillImage" />
        <dc:title>K28: Wreck considered to be potentially dangerous</dc:title>
        <cc:license
           rdf:resource="http://creativecommons.org/publicdomain/zero/1.0/" />
      </cc:Work>
      <cc:License
         rdf:about="http://creativecommons.org/publicdomain/zero/1.0/">
        <cc:permits
           rdf:resource="http://creativecommons.org/ns#Reproduction" />
        <cc:permits
           rdf:resource="http://creativecommons.org/ns#Distribution" />
        <cc:permits
           rdf:resource="http://creativecommons.org/ns#DerivativeWorks" />
      </cc:License>
    </rdf:RDF>
  </metadata>
  <sodipodi:namedview
     pagecolor="#ffffff"
     bordercolor="#666666"
     borderopacity="1"
     objecttolerance="10"
     gridtolerance="10"
     guidetolerance="10"
     inkscape:pageopacity="0"
     inkscape:pageshadow="2"
     inkscape:window-width="3440"
     inkscape:window-height="1371"
     id="namedview7"
     showgrid="false"
     fit-margin-top="0"
     fit-margin-left="0"
     fit-margin-right="0"
     fit-margin-bottom="0"
     inkscape:zoom="5.12"
     inkscape:cx="82.617188"
     inkscape:cy="75.390625"
     inkscape:window-x="0"
     inkscape:window-y="0"
     inkscape:window-maximized="1"
     inkscape:current-layer="g318"
     inkscape:showpageshadow="0"
     inkscape:pagecheckerboard="0"
     inkscape:deskcolor="#d1d1d1"
     showguides="true">
    <sodipodi:guide
       position="74.745762,64.576272"
       orientation="1,0"
       id="guide303"
       inkscape:locked="false" />
    <sodipodi:guide
       position="20.169491,75.254238"
       orientation="0,-1"
       id="guide305"
       inkscape:locked="false" />
  </sodipodi:namedview>
  <defs
     id="defs3427" />
  <g
     id="g318"
     transform="translate(0.390625)">
    <path
       d="m 111.26443,74.605461 c 0,14.152294 -16.509507,25.624999 -36.875007,25.624999 -20.3655,0 -36.875,-11.472705 -36.875,-25.625 0,-14.152293 16.5095,-25.624999 36.875,-25.624999 20.3655,0 36.875007,11.472706 36.875007,25.625 z"
       id="path2621"
       style="fill:#81c3e2;stroke-width:0.625"
       inkscape:connector-curvature="0" />
    <path
       d="m 73.100393,47.652324 c -0.30582,0.307388 -0.550706,0.912936 -0.546875,1.347656 0.0038,0.434721 0.260599,1.028386 0.566406,1.328125 0.305807,0.29974 0.881522,0.528952 1.308594,0.527344 0.427072,-0.0016 1.022305,-0.239487 1.328125,-0.546875 0.30582,-0.307388 0.550706,-0.912936 0.546875,-1.347656 -0.0038,-0.434721 -0.260599,-1.028386 -0.566406,-1.328125 -0.305807,-0.29974 -0.881522,-0.528952 -1.308594,-0.527344 -0.427072,0.0016 -1.022305,0.239487 -1.328125,0.546875 z m -12.265625,1.464844 c -0.303572,0.307393 -0.549577,0.896108 -0.546875,1.328125 0.0027,0.432017 0.260599,1.028385 0.566406,1.328125 0.305807,0.299739 0.881522,0.528952 1.308594,0.527344 0.427072,-0.0016 1.022305,-0.239487 1.328125,-0.546875 0.30582,-0.307389 0.550706,-0.912936 0.546875,-1.347657 -0.0038,-0.43472 -0.260599,-1.028385 -0.566406,-1.328125 -0.305807,-0.299739 -0.880408,-0.531633 -1.308594,-0.527343 -0.428186,0.0043 -1.024553,0.259013 -1.328125,0.566406 z m 24.511718,0 c -0.30582,0.307388 -0.550705,0.912935 -0.546875,1.347656 0.0038,0.434721 0.2606,1.028386 0.566408,1.328125 0.305805,0.299739 0.878807,0.527863 1.308592,0.527344 0.429788,-5e-4 1.041833,-0.237201 1.347658,-0.546875 0.305825,-0.309675 0.53115,-0.915153 0.52734,-1.347656 -0.004,-0.432504 -0.24105,-1.026141 -0.546875,-1.328125 -0.305825,-0.301985 -0.898335,-0.53006 -1.328123,-0.527344 -0.429785,0.0027 -1.022305,0.239487 -1.328125,0.546875 z m -35.976562,4.53125 c -0.304687,0.304687 -0.549577,0.896108 -0.546875,1.328125 0.0027,0.432016 0.261731,1.025655 0.566406,1.328125 0.304676,0.30247 0.879277,0.548434 1.308594,0.546875 0.429317,-0.0016 1.024553,-0.259014 1.328125,-0.566407 0.303572,-0.307393 0.549577,-0.896108 0.546875,-1.328125 -0.0027,-0.432017 -0.260599,-1.028385 -0.566406,-1.328125 -0.305807,-0.299739 -0.881522,-0.528951 -1.308594,-0.527343 -0.427072,0.0016 -1.023437,0.242187 -1.328125,0.546875 z m 47.441405,0.03907 c -0.304685,0.304687 -0.549575,0.896108 -0.546875,1.328125 0.0025,0.432016 0.26173,1.025655 0.566405,1.328125 0.304675,0.30247 0.879275,0.548434 1.3086,0.546875 0.429315,-0.0016 1.024555,-0.259014 1.328125,-0.566407 0.303565,-0.307393 0.549576,-0.896108 0.546876,-1.328125 -0.002,-0.432017 -0.260601,-1.028385 -0.566411,-1.328125 -0.305805,-0.299739 -0.881525,-0.528951 -1.30859,-0.527343 -0.427075,0.0016 -1.02344,0.242187 -1.32813,0.546875 z m -56.679686,8.066403 c -0.303572,0.307393 -0.549577,0.896108 -0.546875,1.328125 0.0027,0.432017 0.2606,1.028386 0.566407,1.328125 0.305806,0.29974 0.881521,0.528952 1.308593,0.527344 0.427072,-0.0016 1.023438,-0.242187 1.328125,-0.546875 0.304688,-0.304687 0.549577,-0.896108 0.546875,-1.328125 -0.0027,-0.432017 -0.261731,-1.025655 -0.566406,-1.328125 -0.304676,-0.30247 -0.879277,-0.548434 -1.308594,-0.546875 -0.429317,0.0016 -1.024553,0.259013 -1.328125,0.566406 z m 65.898437,0.05859 c -0.30357,0.307393 -0.54957,0.896108 -0.54687,1.328125 0.002,0.432017 0.2606,1.028386 0.5664,1.328125 0.30581,0.299739 0.88153,0.528952 1.3086,0.527344 0.42706,-0.0016 1.02343,-0.242188 1.32812,-0.546875 0.30469,-0.304688 0.54958,-0.896108 0.54688,-1.328125 -0.002,-0.432017 -0.26174,-1.025655 -0.56641,-1.328125 -0.30468,-0.30247 -0.87928,-0.548435 -1.30859,-0.546875 -0.42932,0.0016 -1.02456,0.259013 -1.32813,0.566406 z M 36.186331,73.257793 c -0.304688,0.304687 -0.549577,0.896108 -0.546875,1.328125 0.0027,0.432016 0.261731,1.025655 0.566406,1.328125 0.304676,0.30247 0.879277,0.548434 1.308594,0.546875 0.429317,-0.0016 1.024553,-0.259014 1.328125,-0.566407 0.303572,-0.307393 0.549577,-0.896108 0.546875,-1.328125 -0.0027,-0.432017 -0.2606,-1.028385 -0.566406,-1.328125 -0.305807,-0.299739 -0.881522,-0.528952 -1.308594,-0.527343 -0.427072,0.0016 -1.023438,0.242187 -1.328125,0.546875 z m 73.749999,0.01953 c -0.30582,0.307388 -0.55071,0.912936 -0.54687,1.347656 0.004,0.434721 0.2606,1.028386 0.5664,1.328125 0.30581,0.29974 0.88153,0.528952 1.3086,0.527344 0.42706,-0.0016 1.0223,-0.239487 1.32812,-0.546875 0.30582,-0.307388 0.55071,-0.912936 0.54688,-1.347656 -0.004,-0.434721 -0.2606,-1.028386 -0.56641,-1.328125 -0.30581,-0.29974 -0.88153,-0.528952 -1.30859,-0.527344 -0.42707,0.0016 -1.02231,0.239487 -1.32813,0.546875 z M 40.112112,84.781231 c -0.304687,0.304688 -0.549577,0.896108 -0.546875,1.328125 0.0027,0.432015 0.261731,1.025655 0.566406,1.328126 0.304676,0.30247 0.879277,0.54843 1.308594,0.546875 0.429317,-0.0015 1.024553,-0.259015 1.328125,-0.56641 0.303572,-0.307391 0.549577,-0.896106 0.546875,-1.328123 -0.0027,-0.432018 -0.2606,-1.028385 -0.566406,-1.328125 -0.305807,-0.29974 -0.881522,-0.528953 -1.308594,-0.527343 -0.427072,0.0018 -1.023437,0.242188 -1.328125,0.546875 z m 65.878908,0.01953 c -0.30468,0.306978 -0.53006,0.89834 -0.52735,1.328125 0.003,0.429788 0.24219,1.023438 0.54688,1.328126 0.30469,0.304685 0.89611,0.549575 1.32812,0.546875 0.43202,-0.0025 1.02456,-0.259015 1.32813,-0.566405 0.30357,-0.307396 0.54957,-0.896111 0.54687,-1.328126 -0.002,-0.432017 -0.2606,-1.028387 -0.5664,-1.328125 -0.30581,-0.29974 -0.87881,-0.527865 -1.3086,-0.527345 -0.42978,5e-4 -1.04298,0.239898 -1.34765,0.546875 z m -56.660158,8.085936 c -0.30582,0.30739 -0.550706,0.91294 -0.546875,1.34766 0.0038,0.434715 0.260599,1.028385 0.566406,1.328125 0.305807,0.299735 0.881522,0.52895 1.308594,0.52734 0.427072,-0.002 1.022305,-0.239485 1.328125,-0.546875 0.30582,-0.307385 0.550705,-0.912935 0.546875,-1.347655 -0.0038,-0.43472 -0.2606,-1.028385 -0.566407,-1.328125 -0.305806,-0.29974 -0.881521,-0.52895 -1.308593,-0.527345 -0.427072,0.002 -1.022305,0.23949 -1.328125,0.546875 z m 47.441407,0.01955 c -0.30469,0.30469 -0.549575,0.896105 -0.546875,1.328125 0.0025,0.43202 0.26173,1.025655 0.566405,1.328125 0.304675,0.30247 0.879275,0.54844 1.308595,0.546875 0.42932,-10e-4 1.024555,-0.25901 1.328125,-0.566405 0.30357,-0.307395 0.549575,-0.896105 0.546875,-1.328125 -0.0025,-0.43202 -0.2606,-1.028385 -0.566405,-1.328125 -0.305805,-0.29974 -0.881525,-0.528955 -1.308595,-0.527345 -0.42707,0.0015 -1.02344,0.24219 -1.328125,0.546875 z m -35.976564,4.550795 c -0.303571,0.307395 -0.549576,0.896105 -0.546875,1.328125 0.0027,0.43202 0.2606,1.028385 0.566407,1.328133 0.305807,0.29973 0.881522,0.52895 1.308593,0.52734 0.427072,-0.002 1.023438,-0.24219 1.328125,-0.54687 0.304688,-0.304698 0.549577,-0.896118 0.546875,-1.328133 -0.0027,-0.43202 -0.26173,-1.02566 -0.566406,-1.328125 -0.304675,-0.30247 -0.879277,-0.54844 -1.308594,-0.546875 -0.429316,0.001 -1.024553,0.25901 -1.328125,0.566405 z m 24.511719,0 c -0.304688,0.304685 -0.549578,0.896105 -0.546875,1.328125 0.0027,0.43202 0.26173,1.025655 0.566407,1.328133 0.304675,0.30247 0.879275,0.54843 1.308593,0.54687 0.429317,-0.002 1.02455,-0.25901 1.328125,-0.5664 0.30357,-0.307403 0.549575,-0.896118 0.546875,-1.328133 -0.0025,-0.43202 -0.2606,-1.02839 -0.566405,-1.328125 -0.30581,-0.29974 -0.881523,-0.52895 -1.308595,-0.527345 -0.427073,0.0015 -1.023438,0.242185 -1.328125,0.546875 z m -12.265625,1.445285 c -0.30582,0.30739 -0.550705,0.91294 -0.546875,1.347653 0.0038,0.43472 0.2606,1.02839 0.566407,1.32813 0.305806,0.29973 0.878807,0.52787 1.308593,0.52734 0.429786,-5e-4 1.041831,-0.2372 1.347657,-0.54688 0.305825,-0.30967 0.533876,-0.91405 0.527343,-1.34765 -0.0065,-0.433603 -0.260599,-1.028383 -0.566406,-1.328123 -0.305807,-0.299735 -0.881522,-0.52895 -1.308594,-0.527345 -0.427072,0.0015 -1.022305,0.23949 -1.328125,0.546875 z"
       id="path2604"
       style="display:inline;stroke:none;stroke-width:0.625"
       inkscape:connector-curvature="0"
       class="icon" />
    <path
       style="stroke-linecap:round;stroke-linejoin:round;-inkscape-stroke:none"
       d="m 74.388672,53.980469 a 1.875,1.875 0 0 0 -1.875,1.875 v 16.875 h -15 v -10.625 a 1.875,1.875 0 0 0 -1.875,-1.875 1.875,1.875 0 0 0 -1.875,1.875 v 10.625 h -10.625 a 1.875,1.875 0 0 0 -1.875,1.875 1.875,1.875 0 0 0 1.875,1.875 h 10.625 v 10.625 a 1.875,1.875 0 0 0 1.875,1.875 1.875,1.875 0 0 0 1.875,-1.875 v -10.625 h 15 v 16.875 a 1.875,1.875 0 0 0 1.875,1.875 1.875,1.875 0 0 0 1.875,-1.875 v -16.875 h 15 v 10.625 a 1.875,1.875 0 0 0 1.875,1.875 1.875,1.875 0 0 0 1.875,-1.875 v -10.625 h 10.624998 a 1.875,1.875 0 0 0 1.875,-1.875 1.875,1.875 0 0 0 -1.875,-1.875 H 95.013672 v -10.625 a 1.875,1.875 0 0 0 -1.875,-1.875 1.875,1.875 0 0 0 -1.875,1.875 v 10.625 h -15 v -16.875 a 1.875,1.875 0 0 0 -1.875,-1.875 z"
       id="path3393"
       class="icon" />
  </g>
</svg>
