<?xml version="1.0" encoding="UTF-8" standalone="no"?>
<!-- Created with Inkscape (http://www.inkscape.org/) -->

<svg
   version="1.0"
   width="150"
   height="150"
   id="svg3425"
   inkscape:version="1.2.2 (b0a8486541, 2022-12-01)"
   sodipodi:docname="wreck_non_dangerous.svg"
   xmlns:inkscape="http://www.inkscape.org/namespaces/inkscape"
   xmlns:sodipodi="http://sodipodi.sourceforge.net/DTD/sodipodi-0.dtd"
   xmlns="http://www.w3.org/2000/svg"
   xmlns:svg="http://www.w3.org/2000/svg"
   xmlns:rdf="http://www.w3.org/1999/02/22-rdf-syntax-ns#"
   xmlns:cc="http://creativecommons.org/ns#"
   xmlns:dc="http://purl.org/dc/elements/1.1/">
  <title
     id="title2984">K28: Wreck considered to be potentially dangerous</title>
  <metadata
     id="metadata9">
    <rdf:RDF>
      <cc:Work
         rdf:about="">
        <dc:format>image/svg+xml</dc:format>
        <dc:type
           rdf:resource="http://purl.org/dc/dcmitype/StillImage" />
        <dc:title>K28: Wreck considered to be potentially dangerous</dc:title>
        <cc:license
           rdf:resource="http://creativecommons.org/publicdomain/zero/1.0/" />
      </cc:Work>
      <cc:License
         rdf:about="http://creativecommons.org/publicdomain/zero/1.0/">
        <cc:permits
           rdf:resource="http://creativecommons.org/ns#Reproduction" />
        <cc:permits
           rdf:resource="http://creativecommons.org/ns#Distribution" />
        <cc:permits
           rdf:resource="http://creativecommons.org/ns#DerivativeWorks" />
      </cc:License>
    </rdf:RDF>
  </metadata>
  <sodipodi:namedview
     pagecolor="#ffffff"
     bordercolor="#666666"
     borderopacity="1"
     objecttolerance="10"
     gridtolerance="10"
     guidetolerance="10"
     inkscape:pageopacity="0"
     inkscape:pageshadow="2"
     inkscape:window-width="1504"
     inkscape:window-height="1282"
     id="namedview7"
     showgrid="false"
     fit-margin-top="0"
     fit-margin-left="0"
     fit-margin-right="0"
     fit-margin-bottom="0"
     inkscape:zoom="5.12"
     inkscape:cx="85.449219"
     inkscape:cy="75.683594"
     inkscape:window-x="26"
     inkscape:window-y="23"
     inkscape:window-maximized="0"
     inkscape:current-layer="svg3425"
     inkscape:showpageshadow="0"
     inkscape:pagecheckerboard="0"
     inkscape:deskcolor="#d1d1d1"
     showguides="true">
    <sodipodi:guide
       position="74.745762,64.576272"
       orientation="1,0"
       id="guide303"
       inkscape:locked="false" />
    <sodipodi:guide
       position="20.169491,75.254238"
       orientation="0,-1"
       id="guide305"
       inkscape:locked="false" />
  </sodipodi:namedview>
  <defs
     id="defs3427" />
  <path
     style="color:#000000;fill:#000000;stroke-linecap:round;stroke-linejoin:round;-inkscape-stroke:none"
     d="m 74.779297,53.980469 a 1.875,1.875 0 0 0 -1.875,1.875 v 16.875 h -15 v -10.625 a 1.875,1.875 0 0 0 -1.875,-1.875 1.875,1.875 0 0 0 -1.875,1.875 v 10.625 h -10.625 a 1.875,1.875 0 0 0 -1.875,1.875 1.875,1.875 0 0 0 1.875,1.875 h 10.625 v 10.625 a 1.875,1.875 0 0 0 1.875,1.875 1.875,1.875 0 0 0 1.875,-1.875 v -10.625 h 15 v 16.875 a 1.875,1.875 0 0 0 1.875,1.875 1.875,1.875 0 0 0 1.875,-1.875 v -16.875 h 15 v 10.625 a 1.875,1.875 0 0 0 1.875,1.875 1.875,1.875 0 0 0 1.875,-1.875 v -10.625 H 106.0293 a 1.875,1.875 0 0 0 1.875,-1.875 1.875,1.875 0 0 0 -1.875,-1.875 H 95.404297 v -10.625 a 1.875,1.875 0 0 0 -1.875,-1.875 1.875,1.875 0 0 0 -1.875,1.875 v 10.625 h -15 v -16.875 a 1.875,1.875 0 0 0 -1.875,-1.875 z"
     id="path3393"
     class="icon" />
</svg>
