<?xml version="1.0" encoding="UTF-8" standalone="no"?>
<!-- Created with Inkscape (http://www.inkscape.org/) -->

<svg
   version="1.0"
   width="150"
   height="150"
   id="svg3425"
   inkscape:version="1.2.2 (b0a8486541, 2022-12-01)"
   sodipodi:docname="wreck_dangerous.svg"
   xmlns:inkscape="http://www.inkscape.org/namespaces/inkscape"
   xmlns:sodipodi="http://sodipodi.sourceforge.net/DTD/sodipodi-0.dtd"
   xmlns="http://www.w3.org/2000/svg"
   xmlns:svg="http://www.w3.org/2000/svg"
   xmlns:rdf="http://www.w3.org/1999/02/22-rdf-syntax-ns#"
   xmlns:cc="http://creativecommons.org/ns#"
   xmlns:dc="http://purl.org/dc/elements/1.1/">
  <title
     id="title2984">K28: Wreck considered to be potentially dangerous</title>
  <metadata
     id="metadata9">
    <rdf:RDF>
      <cc:Work
         rdf:about="">
        <dc:format>image/svg+xml</dc:format>
        <dc:type
           rdf:resource="http://purl.org/dc/dcmitype/StillImage" />
        <dc:title>K28: Wreck considered to be potentially dangerous</dc:title>
        <cc:license
           rdf:resource="http://creativecommons.org/publicdomain/zero/1.0/" />
      </cc:Work>
      <cc:License
         rdf:about="http://creativecommons.org/publicdomain/zero/1.0/">
        <cc:permits
           rdf:resource="http://creativecommons.org/ns#Reproduction" />
        <cc:permits
           rdf:resource="http://creativecommons.org/ns#Distribution" />
        <cc:permits
           rdf:resource="http://creativecommons.org/ns#DerivativeWorks" />
      </cc:License>
    </rdf:RDF>
  </metadata>
  <sodipodi:namedview
     pagecolor="#ffffff"
     bordercolor="#666666"
     borderopacity="1"
     objecttolerance="10"
     gridtolerance="10"
     guidetolerance="10"
     inkscape:pageopacity="0"
     inkscape:pageshadow="2"
     inkscape:window-width="3440"
     inkscape:window-height="1371"
     id="namedview7"
     showgrid="false"
     fit-margin-top="0"
     fit-margin-left="0"
     fit-margin-right="0"
     fit-margin-bottom="0"
     inkscape:zoom="5.12"
     inkscape:cx="83.105469"
     inkscape:cy="75.390625"
     inkscape:window-x="0"
     inkscape:window-y="0"
     inkscape:window-maximized="1"
     inkscape:current-layer="g318"
     inkscape:showpageshadow="0"
     inkscape:pagecheckerboard="0"
     inkscape:deskcolor="#d1d1d1"
     showguides="true">
    <sodipodi:guide
       position="74.745762,64.576272"
       orientation="1,0"
       id="guide303"
       inkscape:locked="false" />
    <sodipodi:guide
       position="20.169491,75.254238"
       orientation="0,-1"
       id="guide305"
       inkscape:locked="false" />
  </sodipodi:namedview>
  <defs
     id="defs3427" />
  <g
     id="g318"
     transform="translate(0.390625)">
    <path
       d="m 125.49356,74.62187 c 0,19.624972 -22.89372,35.53417 -51.134529,35.53417 -28.240826,0 -51.134535,-15.909198 -51.134535,-35.534171 0,-19.624974 22.893709,-35.534167 51.134535,-35.534167 28.240809,0 51.134529,15.909193 51.134529,35.534168 z"
       id="path2621"
       inkscape:connector-curvature="0"
       class="obstruction" />
    <path
       d="m 72.571533,37.245975 c -0.424081,0.426254 -0.763666,1.265968 -0.758352,1.868794 0.0053,0.602827 0.361373,1.426062 0.785437,1.84171 0.424065,0.415649 1.222409,0.733497 1.814628,0.731267 0.592219,-0.0022 1.417631,-0.332096 1.841712,-0.758351 0.42408,-0.426254 0.763664,-1.265967 0.758351,-1.868793 -0.0053,-0.602828 -0.361372,-1.426062 -0.785436,-1.84171 -0.424064,-0.415649 -1.222408,-0.733498 -1.814627,-0.731268 -0.592219,0.0022 -1.417631,0.332097 -1.841713,0.758351 z m -17.008732,2.031298 c -0.420964,0.426262 -0.762099,1.242632 -0.75835,1.84171 0.0037,0.599077 0.361373,1.42606 0.785434,1.841709 0.424062,0.415648 1.222406,0.733498 1.814625,0.731268 0.592219,-0.0022 1.417631,-0.332096 1.84171,-0.75835 0.424078,-0.426257 0.763663,-1.265968 0.75835,-1.868795 -0.0053,-0.602826 -0.361373,-1.426061 -0.785435,-1.84171 -0.424062,-0.415648 -1.220861,-0.737215 -1.814625,-0.731266 -0.593764,0.006 -1.420746,0.359173 -1.841709,0.785434 z m 33.990389,0 c -0.424082,0.426254 -0.763672,1.265967 -0.75836,1.868794 0.005,0.602826 0.36138,1.426062 0.785439,1.84171 0.424059,0.415647 1.218637,0.731986 1.814628,0.731268 0.595979,-6.95e-4 1.44471,-0.328927 1.868791,-0.758353 0.424092,-0.429426 0.736548,-1.269041 0.731262,-1.868792 -0.006,-0.599753 -0.33426,-1.42295 -0.75835,-1.84171 -0.42408,-0.418763 -1.24572,-0.735034 -1.8417,-0.731268 -0.59599,0.0037 -1.41763,0.332097 -1.84171,0.758351 z m -49.888678,6.283482 c -0.422508,0.422508 -0.762098,1.242632 -0.75835,1.841709 0.0037,0.599077 0.362941,1.422275 0.785435,1.84171 0.422494,0.419435 1.219293,0.760513 1.814625,0.758352 0.595334,-0.0022 1.420746,-0.359175 1.84171,-0.785437 0.420963,-0.426261 0.762098,-1.242632 0.75835,-1.84171 -0.0037,-0.599077 -0.361374,-1.42606 -0.785435,-1.84171 -0.424062,-0.415647 -1.222406,-0.733495 -1.814628,-0.731266 -0.592219,0.0022 -1.419198,0.335841 -1.841707,0.758352 z m 65.786948,0.05418 c -0.42251,0.422509 -0.7621,1.242632 -0.75836,1.84171 0.003,0.599075 0.36295,1.422275 0.78544,1.84171 0.42249,0.419435 1.21929,0.760513 1.81463,0.75835 0.59533,-0.0022 1.42075,-0.359175 1.84171,-0.785435 0.42096,-0.426263 0.7621,-1.242633 0.75835,-1.84171 -0.003,-0.599078 -0.36137,-1.426061 -0.78544,-1.84171 -0.42406,-0.415648 -1.22241,-0.733496 -1.81462,-0.731266 -0.59222,0.0022 -1.4192,0.33584 -1.84171,0.758351 z M 26.85379,56.800607 c -0.420964,0.426262 -0.762099,1.242632 -0.758352,1.84171 0.0037,0.599077 0.361375,1.426062 0.785436,1.84171 0.424062,0.415649 1.222405,0.733497 1.814625,0.731267 0.592221,-0.0022 1.419202,-0.335839 1.84171,-0.75835 0.42251,-0.422509 0.762098,-1.242633 0.758351,-1.84171 -0.0037,-0.599078 -0.362942,-1.422275 -0.785435,-1.84171 -0.422494,-0.419435 -1.219293,-0.760514 -1.814626,-0.758351 -0.595334,0.0022 -1.420746,0.359173 -1.841709,0.785434 z m 91.3813,0.08125 c -0.42096,0.426261 -0.76209,1.242632 -0.75834,1.84171 0.003,0.599077 0.36137,1.426062 0.78542,1.84171 0.42407,0.415647 1.22242,0.733497 1.81464,0.731267 0.5922,-0.0022 1.41919,-0.335842 1.8417,-0.758351 0.42251,-0.422511 0.7621,-1.242632 0.75836,-1.84171 -0.003,-0.599078 -0.36296,-1.422275 -0.78544,-1.84171 -0.4225,-0.419435 -1.2193,-0.760514 -1.81462,-0.75835 -0.59534,0.0022 -1.42076,0.359172 -1.84172,0.785434 z M 21.382832,72.75306 c -0.422511,0.422509 -0.762099,1.242633 -0.758352,1.84171 0.0037,0.599076 0.362942,1.422275 0.785434,1.84171 0.422494,0.419435 1.219293,0.760513 1.814627,0.758351 0.595333,-0.0022 1.420747,-0.359174 1.84171,-0.785436 0.420965,-0.426262 0.762099,-1.242632 0.758351,-1.84171 -0.0037,-0.599077 -0.361374,-1.426061 -0.785433,-1.84171 -0.424062,-0.415648 -1.222404,-0.733497 -1.814628,-0.731266 -0.59222,0.0022 -1.419201,0.335841 -1.841709,0.758351 z m 102.269048,0.02708 c -0.42408,0.426255 -0.76366,1.265968 -0.75834,1.868793 0.006,0.602828 0.36137,1.426062 0.78543,1.841711 0.42406,0.415649 1.22241,0.733497 1.81463,0.731268 0.59221,-0.0022 1.41762,-0.332098 1.8417,-0.758352 0.42408,-0.426254 0.76367,-1.265968 0.75836,-1.868793 -0.006,-0.602828 -0.36137,-1.426062 -0.78544,-1.841711 -0.42406,-0.415649 -1.22241,-0.733497 -1.81462,-0.731268 -0.59222,0.0022 -1.41764,0.332098 -1.84172,0.758352 z M 26.826706,88.732602 c -0.42251,0.422511 -0.762099,1.242629 -0.758351,1.841709 0.0037,0.59908 0.362942,1.42228 0.785435,1.84171 0.422494,0.41944 1.219293,0.76051 1.814626,0.75835 0.595334,-0.002 1.420746,-0.35917 1.841709,-0.78544 0.420964,-0.42626 0.762099,-1.24263 0.758352,-1.8417 -0.0037,-0.59908 -0.361373,-1.426065 -0.785434,-1.841714 -0.424063,-0.415649 -1.222405,-0.733498 -1.814627,-0.731266 -0.592221,0.0025 -1.419199,0.335842 -1.84171,0.758351 z m 91.354224,0.02708 c -0.4225,0.425687 -0.73504,1.245729 -0.73128,1.841709 0.004,0.59599 0.33584,1.4192 0.75836,1.84171 0.42251,0.42251 1.24263,0.7621 1.8417,0.75836 0.59908,-0.003 1.42076,-0.35918 1.84172,-0.78544 0.42096,-0.42626 0.76209,-1.24263 0.75834,-1.84171 -0.003,-0.59908 -0.36137,-1.426064 -0.78542,-1.841711 -0.42407,-0.415649 -1.21865,-0.73199 -1.81464,-0.731269 -0.59597,6.94e-4 -1.4463,0.332667 -1.86878,0.758351 z m -78.570587,11.21276 c -0.424082,0.426258 -0.763664,1.265978 -0.75835,1.868798 0.0053,0.60282 0.361373,1.42606 0.785434,1.84171 0.424062,0.41565 1.222406,0.7335 1.814625,0.73127 0.592219,-0.003 1.417631,-0.3321 1.84171,-0.75836 0.424081,-0.42625 0.763661,-1.26596 0.75835,-1.86879 -0.0053,-0.60282 -0.361373,-1.42606 -0.785435,-1.841708 -0.424062,-0.41565 -1.222406,-0.733491 -1.814625,-0.73127 -0.592219,0.003 -1.417631,0.3321 -1.841709,0.75835 z m 65.786947,0.0271 c -0.42251,0.422518 -0.76209,1.242628 -0.75835,1.841708 0.003,0.59909 0.36294,1.42228 0.78543,1.84171 0.4225,0.41944 1.21929,0.76053 1.81463,0.75836 0.59534,-0.001 1.42075,-0.35917 1.84171,-0.78544 0.42096,-0.42626 0.7621,-1.24263 0.75835,-1.84171 -0.003,-0.59908 -0.36137,-1.42606 -0.78543,-1.841708 -0.42406,-0.41565 -1.22241,-0.7335 -1.81463,-0.73127 -0.59222,0.002 -1.4192,0.33585 -1.84171,0.75835 z m -49.888658,6.310588 c -0.420961,0.42626 -0.762096,1.24263 -0.758351,1.84171 0.0037,0.59908 0.361374,1.42606 0.785436,1.84172 0.424063,0.41564 1.222406,0.73349 1.814625,0.73126 0.592221,-0.003 1.419201,-0.33584 1.84171,-0.75834 0.422511,-0.42253 0.762098,-1.24265 0.758351,-1.84172 -0.0037,-0.59909 -0.362941,-1.42229 -0.785435,-1.84171 -0.422494,-0.41944 -1.219293,-0.76052 -1.814628,-0.75835 -0.595332,0.001 -1.420746,0.35916 -1.841708,0.78543 z m 33.990384,0 c -0.42251,0.42251 -0.7621,1.24263 -0.758348,1.84171 0.004,0.59908 0.362938,1.42227 0.785432,1.84172 0.4225,0.41943 1.21929,0.76051 1.814627,0.75834 0.595332,-0.003 1.420739,-0.35916 1.841713,-0.78542 0.420957,-0.42628 0.76209,-1.24265 0.758347,-1.84172 -0.003,-0.59909 -0.361367,-1.42607 -0.785431,-1.84171 -0.42407,-0.41565 -1.22241,-0.7335 -1.814629,-0.73127 -0.592219,0.002 -1.419201,0.33584 -1.841711,0.75835 z m -17.008734,2.00417 c -0.424081,0.42626 -0.763662,1.26598 -0.758351,1.86879 0.0053,0.60283 0.361373,1.42607 0.785436,1.84172 0.424061,0.41564 1.218641,0.732 1.814625,0.73126 0.595984,-6.9e-4 1.444706,-0.32892 1.868797,-0.75836 0.424087,-0.42941 0.740325,-1.26751 0.731268,-1.86878 -0.009,-0.60128 -0.361373,-1.42606 -0.785438,-1.84171 -0.424063,-0.41564 -1.222407,-0.73349 -1.814627,-0.73127 -0.592219,0.002 -1.41763,0.3321 -1.84171,0.75835 z"
       id="path2604"
       style="display:inline;stroke:none;stroke-width:0.866687"
       inkscape:connector-curvature="0"
       class="icon" />
    <path
       style="stroke-width:1.3867;stroke-linecap:round;stroke-linejoin:round;-inkscape-stroke:none"
       d="m 74.35799,46.021208 a 2.6000611,2.6000611 0 0 0 -2.60006,2.600061 v 23.40055 H 50.957439 V 57.28814 a 2.6000611,2.6000611 0 0 0 -2.600063,-2.600061 2.6000611,2.6000611 0 0 0 -2.600062,2.600061 v 14.733679 h -14.73368 a 2.6000611,2.6000611 0 0 0 -2.600061,2.600062 2.6000611,2.6000611 0 0 0 2.600061,2.600061 h 14.733683 v 14.733679 a 2.6000611,2.6000611 0 0 0 2.600062,2.60006 2.6000611,2.6000611 0 0 0 2.600063,-2.60006 V 77.221942 H 71.75793 v 23.400548 a 2.6000611,2.6000611 0 0 0 2.60006,2.60006 2.6000611,2.6000611 0 0 0 2.60006,-2.60006 V 77.221942 h 20.800482 v 14.733679 a 2.6000611,2.6000611 0 0 0 2.600068,2.60006 2.6000611,2.6000611 0 0 0 2.60005,-2.60006 V 77.221942 h 14.73367 a 2.6000611,2.6000611 0 0 0 2.60006,-2.600061 2.6000611,2.6000611 0 0 0 -2.60006,-2.600061 H 102.95865 V 57.28814 A 2.6000611,2.6000611 0 0 0 100.3586,54.688079 2.6000611,2.6000611 0 0 0 97.758535,57.28814 V 72.02182 H 76.95805 V 48.62127 a 2.6000611,2.6000611 0 0 0 -2.60006,-2.600062 z"
       id="path3393"
       class="icon" />
  </g>
</svg>
