<?xml version="1.0" encoding="UTF-8" standalone="no"?>
<svg
   version="1.0"
   width="150"
   height="150"
   id="svg2"
   inkscape:version="1.2.2 (b0a8486541, 2022-12-01)"
   sodipodi:docname="recommended_direction.svg"
   sodipodi:version="0.32"
   inkscape:output_extension="org.inkscape.output.svg.inkscape"
   sodipodi:modified="true"
   xmlns:inkscape="http://www.inkscape.org/namespaces/inkscape"
   xmlns:sodipodi="http://sodipodi.sourceforge.net/DTD/sodipodi-0.dtd"
   xmlns="http://www.w3.org/2000/svg"
   xmlns:svg="http://www.w3.org/2000/svg"
   xmlns:rdf="http://www.w3.org/1999/02/22-rdf-syntax-ns#"
   xmlns:cc="http://creativecommons.org/ns#"
   xmlns:dc="http://purl.org/dc/elements/1.1/">
  <title
     id="title2982">L5.1: Wind Turbine</title>
  <metadata
     id="metadata3032">
    <rdf:RDF>
      <cc:Work
         rdf:about="">
        <dc:format>image/svg+xml</dc:format>
        <dc:type
           rdf:resource="http://purl.org/dc/dcmitype/StillImage" />
        <cc:license
           rdf:resource="http://creativecommons.org/publicdomain/zero/1.0/" />
        <dc:title>L5.1: Wind Turbine</dc:title>
      </cc:Work>
      <cc:Work
         rdf:about="">
        <dc:format>image/svg+xml</dc:format>
        <dc:type
           rdf:resource="http://purl.org/dc/dcmitype/StillImage" />
      </cc:Work>
      <cc:License
         rdf:about="http://creativecommons.org/publicdomain/zero/1.0/">
        <cc:permits
           rdf:resource="http://creativecommons.org/ns#Reproduction" />
        <cc:permits
           rdf:resource="http://creativecommons.org/ns#Distribution" />
        <cc:permits
           rdf:resource="http://creativecommons.org/ns#DerivativeWorks" />
      </cc:License>
    </rdf:RDF>
  </metadata>
  <sodipodi:namedview
     pagecolor="#ffffff"
     bordercolor="#666666"
     borderopacity="1"
     objecttolerance="10"
     gridtolerance="10"
     guidetolerance="10"
     inkscape:pageopacity="0"
     inkscape:pageshadow="2"
     inkscape:window-width="1504"
     inkscape:window-height="1282"
     id="namedview3030"
     showgrid="false"
     inkscape:zoom="10.436164"
     inkscape:cx="74.356826"
     inkscape:cy="60.510742"
     inkscape:window-x="26"
     inkscape:window-y="23"
     inkscape:window-maximized="0"
     inkscape:current-layer="svg2"
     inkscape:showpageshadow="0"
     inkscape:pagecheckerboard="0"
     inkscape:deskcolor="#d1d1d1"
     showguides="true">
    <sodipodi:guide
       position="-48.228106,75"
       orientation="0,1"
       id="guide4314"
       inkscape:locked="false"
       inkscape:label=""
       inkscape:color="rgb(0,134,229)" />
    <sodipodi:guide
       position="75,156.51731"
       orientation="-1,0"
       id="guide4316"
       inkscape:locked="false"
       inkscape:label=""
       inkscape:color="rgb(0,134,229)" />
  </sodipodi:namedview>
  <defs
     id="defs4" />
  <path
     d="m 70.35472,43.30857 -9.117331,0.0023 13.655887,-22.807734 13.702322,22.7881 -9.117222,0.0087 0.07395,86.626494 -9.123596,0.0119 z"
     id="path17611"
     style="display:none;fill:none;stroke:#a30075;stroke-width:2;stroke-linecap:butt;stroke-linejoin:miter;stroke-miterlimit:10;stroke-dasharray:10, 2;stroke-dashoffset:5.2;stroke-opacity:1;paint-order:normal" />
  <path
     style="color:#000000;fill:#a30075;stroke-miterlimit:10;stroke-dasharray:10, 2;stroke-dashoffset:5.2;-inkscape-stroke:none"
     d="m 74.905004,18.799417 -3.373047,5.634766 1.714844,1.027344 1.662109,-2.775391 1.769532,2.94336 1.71289,-1.03125 z m -4.400391,7.351563 -5.136718,8.578125 1.714843,1.027344 5.136719,-8.578125 z m 8.917969,0.162109 -1.714844,1.029297 5.154297,8.570313 1.712891,-1.03125 z m -15.082031,10.132813 -4.853516,8.105469 h 4.082032 v -2 h -0.552735 l 3.039063,-5.078125 z m 21.265625,0.15039 -1.714844,1.03125 2.951172,4.90625 h -0.742187 l 0.002,2 4.27539,-0.0039 z m -1.505859,5.939454 -5.609375,0.0059 0.0059,6.390625 2,-0.002 -0.0039,-4.390625 3.609375,-0.0039 z m -18.53125,0.01367 v 2 h 3.798828 l 0.0059,5.988282 2,-0.002 -0.0059,-6.988282 h -1 v -0.998047 z m 14.929687,8.38086 -2,0.002 0.0078,10 2,-0.002 z m -9.123047,1.605469 -2,0.002 0.0098,10 2,-0.002 z m 9.132813,10.394531 -2,0.002 0.0098,10 2,-0.002 z m -9.121094,1.605469 -2,0.002 0.0078,10 2,-0.002 z m 9.130859,10.394531 -2,0.002 0.0098,10 2,-0.002 z m -9.121093,1.605469 -2,0.002 0.0078,10 2,-0.002 z m 9.132812,10.394531 -2,0.002 0.0078,10 2,-0.002 z m -9.123047,1.605469 -2,0.002 0.0078,10 2,-0.002 z m 9.132813,10.394531 -2,0.002 0.0078,9.999994 2,-0.002 z m -9.123047,1.605464 -2,0.002 0.0098,10 2,-0.002 z m 9.132812,10.39453 -2,0.002 0.0098,10.00001 2,-0.002 z m -9.121093,1.60547 -2,0.002 0.0078,10 2,-0.002 z m 9.130859,10.39453 -2,0.002 0.0059,6.23632 -1.765625,0.002 0.0039,2 3.763671,-0.006 z m -9.121094,1.60547 -2,0.002 0.0059,6.64258 5.359375,-0.008 -0.0039,-2 -3.357422,0.004 z"
     id="path17611-8"
     class="icon" />
</svg>
